<svg width="28.000000" height="28.000000" viewBox="0 0 28 28" fill="none" xmlns="http://www.w3.org/2000/svg" xmlns:xlink="http://www.w3.org/1999/xlink">
	<desc>
			Created with Pixso.
	</desc>
	<defs>
		<clipPath id="clip5_44">
			<rect id="hamburger-list-menu-svgrepo-com.svg" width="28.000000" height="28.000000" fill="white" fill-opacity="0"/>
		</clipPath>
	</defs>
	<g clip-path="url(#clip5_44)">
		<path id="XMLID_352_" d="M25.37 14C25.37 14.96 24.59 15.75 23.62 15.75L9.62 15.75C8.65 15.75 7.87 14.96 7.87 14C7.87 13.03 8.65 12.25 9.62 12.25L23.62 12.25C24.59 12.25 25.37 13.03 25.37 14Z" fill="#000000" fill-opacity="1.000000" fill-rule="nonzero"/>
		<path id="XMLID_354_" d="M25.37 5.25C25.37 6.21 24.59 7 23.62 7L9.62 7C8.65 7 7.87 6.21 7.87 5.25C7.87 4.28 8.65 3.5 9.62 3.5L23.62 3.5C24.59 3.5 25.37 4.28 25.37 5.25Z" fill="#000000" fill-opacity="1.000000" fill-rule="nonzero"/>
		<path id="XMLID_356_" d="M25.37 22.75C25.37 23.71 24.59 24.5 23.62 24.5L9.62 24.5C8.65 24.5 7.87 23.71 7.87 22.75C7.87 21.78 8.65 21 9.62 21L23.62 21C24.59 21 25.37 21.78 25.37 22.75Z" fill="#000000" fill-opacity="1.000000" fill-rule="nonzero"/>
		<path id="XMLID_358_" d="M2.62 5.25C2.62 6.21 3.4 7 4.37 7C5.34 7 6.12 6.21 6.12 5.25C6.12 4.28 5.34 3.5 4.37 3.5C3.4 3.5 2.62 4.28 2.62 5.25Z" fill="#000000" fill-opacity="1.000000" fill-rule="nonzero"/>
		<path id="XMLID_360_" d="M2.62 14C2.62 14.96 3.4 15.75 4.37 15.75C5.34 15.75 6.12 14.96 6.12 14C6.12 13.03 5.34 12.25 4.37 12.25C3.4 12.25 2.62 13.03 2.62 14Z" fill="#000000" fill-opacity="1.000000" fill-rule="nonzero"/>
		<path id="XMLID_362_" d="M2.62 22.75C2.62 23.71 3.4 24.5 4.37 24.5C5.34 24.5 6.12 23.71 6.12 22.75C6.12 21.78 5.34 21 4.37 21C3.4 21 2.62 21.78 2.62 22.75Z" fill="#000000" fill-opacity="1.000000" fill-rule="nonzero"/>
	</g>
</svg>
