<svg width="55.000000" height="33.000000" viewBox="0 0 55 33" fill="none" xmlns="http://www.w3.org/2000/svg" xmlns:xlink="http://www.w3.org/1999/xlink">
	<desc>
			Created with Pixso.
	</desc>
	<defs>
		<clipPath id="clip122_5">
			<rect id="Frame 16" rx="2.000000" width="14.000000" height="27.000000" transform="translate(3.000000 3.000000)" fill="white" fill-opacity="0"/>
		</clipPath>
		<clipPath id="clip122_2">
			<rect id="Frame 17" width="20.000000" height="30.000000" transform="translate(0.000000 1.000000)" fill="white" fill-opacity="0"/>
		</clipPath>
		<clipPath id="clip122_9">
			<rect id="Frame 16" rx="2.000000" width="14.000000" height="27.000000" transform="translate(38.000000 3.000000)" fill="white" fill-opacity="0"/>
		</clipPath>
		<clipPath id="clip122_3">
			<rect id="Frame 17" width="20.000000" height="30.000000" transform="translate(35.000000 1.000000)" fill="white" fill-opacity="0"/>
		</clipPath>
		<clipPath id="clip122_11">
			<rect id="Frame 23" width="55.000000" height="33.000000" fill="white" fill-opacity="0"/>
		</clipPath>
	</defs>
	<rect id="Frame 23" width="55.000000" height="33.000000" fill="#FFFFFF" fill-opacity="0"/>
	<g clip-path="url(#clip122_11)">
		<path id="Vector 2" d="M30.79 14.5L28.81 12.52C28.62 12.32 28.62 12.01 28.81 11.81C29.01 11.62 29.32 11.62 29.52 11.81L32.35 14.64C32.55 14.84 32.55 15.15 32.35 15.35L29.52 18.18C29.32 18.37 29.01 18.37 28.81 18.18C28.62 17.98 28.62 17.67 28.81 17.47L30.79 15.5L23 15.5L23 14.5L30.79 14.5Z" fill="#000000" fill-opacity="1.000000" fill-rule="evenodd"/>
		<rect id="Frame 17" width="20.000000" height="30.000000" transform="translate(0.000000 1.000000)" fill="#FFFFFF" fill-opacity="0"/>
		<g clip-path="url(#clip122_2)">
			<rect id="Frame 16" rx="2.000000" width="14.000000" height="27.000000" transform="translate(3.000000 3.000000)" fill="#FFFFFF" fill-opacity="1.000000"/>
			<g clip-path="url(#clip122_5)">
				<rect id="Rectangle 5" x="7.000000" y="5.000000" rx="1.000000" width="6.000000" height="2.000000" fill="#000000" fill-opacity="1.000000"/>
				<path id="Vector 3" d="M5.5 4L5 8.5L8 8.5L6 13.5L8 15L7 19.5" stroke="#000000" stroke-opacity="1.000000" stroke-width="1.000000"/>
				<path id="Vector 4" d="M12 31L13.5 27.5L11 27.5L14 22.5L12.5 21L11 15" stroke="#000000" stroke-opacity="1.000000" stroke-width="1.000000"/>
			</g>
			<rect id="Frame 16" rx="2.000000" width="14.000000" height="27.000000" transform="translate(3.000000 3.000000)" stroke="#000000" stroke-opacity="1.000000" stroke-width="2.000000"/>
		</g>
		<rect id="Frame 17" width="20.000000" height="30.000000" transform="translate(35.000000 1.000000)" fill="#FFFFFF" fill-opacity="0"/>
		<g clip-path="url(#clip122_3)">
			<rect id="Frame 16" rx="2.000000" width="14.000000" height="27.000000" transform="translate(38.000000 3.000000)" fill="#FFFFFF" fill-opacity="1.000000"/>
			<g clip-path="url(#clip122_9)">
				<rect id="Rectangle 5" x="42.000000" y="5.000000" rx="1.000000" width="6.000000" height="2.000000" fill="#000000" fill-opacity="1.000000"/>
			</g>
			<rect id="Frame 16" rx="2.000000" width="14.000000" height="27.000000" transform="translate(38.000000 3.000000)" stroke="#000000" stroke-opacity="1.000000" stroke-width="2.000000"/>
		</g>
	</g>
</svg>
