<svg width="113.943848" height="25.918945" viewBox="0 0 113.944 25.9189" fill="none" xmlns="http://www.w3.org/2000/svg" xmlns:xlink="http://www.w3.org/1999/xlink">
	<desc>
			Created with Pixso.
	</desc>
	<defs/>
	<path id="LOGO." d="M4.68 0.36L0 0.36L0 25.55L17.85 25.55L17.85 21.59L4.68 21.59L4.68 0.36ZM109.77 25.57Q110.33 25.81 110.99 25.81Q111.63 25.81 112.17 25.58Q112.66 25.37 113.07 24.96Q113.42 24.62 113.63 24.21Q113.94 23.59 113.94 22.82Q113.94 21.9 113.53 21.22Q113.35 20.91 113.09 20.66Q112.76 20.33 112.36 20.14Q111.75 19.83 110.99 19.83Q110.2 19.83 109.58 20.15Q109.2 20.34 108.88 20.66Q108.62 20.91 108.45 21.2Q108.03 21.88 108.03 22.82Q108.03 23.6 108.35 24.23Q108.56 24.63 108.89 24.96Q109.29 25.36 109.77 25.57Z" fill="#2397FE" fill-opacity="1.000000" fill-rule="evenodd"/>
	<path id="LOGO." d="M27.23 24.66Q29.99 25.91 33.33 25.91Q36.7 25.91 39.49 24.64Q39.89 24.45 40.28 24.24Q42.08 23.27 43.43 21.86Q44.4 20.85 45.14 19.61Q45.57 18.9 45.89 18.15Q46.91 15.77 46.91 12.95Q46.91 10.17 45.91 7.81Q45.58 7.03 45.14 6.3Q44.39 5.04 43.4 4.02Q42.06 2.64 40.28 1.67Q39.87 1.45 39.44 1.26Q36.67 0 33.33 0Q30.02 0 27.27 1.23Q26.82 1.44 26.38 1.67Q24.65 2.61 23.34 3.95Q22.3 5.01 21.52 6.31Q21.01 7.19 20.64 8.12Q19.76 10.36 19.76 12.95Q19.76 15.58 20.66 17.84Q21.02 18.75 21.52 19.59Q22.29 20.89 23.31 21.94Q24.64 23.3 26.38 24.24Q26.8 24.47 27.23 24.66ZM73.51 12.67L69.08 12.67L69.08 20.52Q69.02 20.55 68.96 20.59Q66.77 21.81 63.89 21.81Q61.55 21.81 59.65 20.89Q59.42 20.78 59.19 20.66Q58.04 20.02 57.17 19.11Q56.48 18.39 55.96 17.49Q55.7 17.05 55.5 16.59Q54.79 14.92 54.79 12.95Q54.79 10.66 55.7 8.82Q55.82 8.58 55.96 8.34Q56.51 7.4 57.26 6.65Q58.1 5.81 59.19 5.22Q59.22 5.2 59.26 5.18Q61.31 4.1 63.93 4.1Q65.96 4.1 67.7 4.82Q69.44 5.53 70.88 6.97L73.83 4.1Q73.27 3.45 72.62 2.9Q71.24 1.74 69.48 1.04Q66.88 0 63.72 0Q60.26 0 57.42 1.32Q57.06 1.49 56.71 1.67Q54.88 2.66 53.51 4.09Q52.56 5.09 51.84 6.3Q51.4 7.03 51.07 7.81Q50.07 10.17 50.07 12.95Q50.07 15.77 51.09 18.15Q51.41 18.9 51.84 19.61Q52.58 20.85 53.55 21.86Q54.9 23.27 56.7 24.24Q57.11 24.47 57.54 24.66Q60.31 25.91 63.64 25.91Q65.23 25.91 66.78 25.63Q67.89 25.43 68.97 25.09Q71.57 24.26 73.51 22.71L73.51 12.67ZM85.33 24.66Q88.1 25.91 91.43 25.91Q94.81 25.91 97.6 24.64Q98 24.45 98.38 24.24Q100.18 23.27 101.53 21.86Q102.5 20.85 103.24 19.61Q103.67 18.9 103.99 18.15Q105.01 15.77 105.01 12.95Q105.01 10.17 104.01 7.81Q103.68 7.03 103.24 6.3Q102.5 5.04 101.51 4.02Q100.17 2.64 98.38 1.67Q97.97 1.45 97.55 1.26Q94.78 0 91.43 0Q88.13 0 85.38 1.23Q84.93 1.44 84.49 1.67Q82.76 2.61 81.44 3.95Q80.41 5.01 79.63 6.31Q79.11 7.19 78.74 8.12Q77.86 10.36 77.86 12.95Q77.86 15.58 78.76 17.84Q79.12 18.75 79.63 19.59Q80.4 20.89 81.42 21.94Q82.74 23.3 84.49 24.24Q84.9 24.47 85.33 24.66ZM37.17 21.02Q35.43 21.81 33.33 21.81Q31.29 21.81 29.58 21.07Q29.18 20.89 28.79 20.68Q27.86 20.15 27.11 19.43Q26.25 18.6 25.63 17.51Q25.38 17.07 25.18 16.6Q24.48 14.92 24.48 12.95Q24.48 10.99 25.18 9.33Q25.37 8.85 25.63 8.41Q26.26 7.29 27.15 6.45Q27.88 5.75 28.79 5.23Q29.18 5.02 29.58 4.84Q31.29 4.1 33.33 4.1Q35.43 4.1 37.17 4.88Q37.52 5.04 37.86 5.23Q38.8 5.76 39.55 6.48Q40.42 7.31 41.04 8.41Q41.29 8.85 41.49 9.33Q42.19 10.99 42.19 12.95Q42.19 14.92 41.48 16.6Q41.29 17.07 41.04 17.51Q40.43 18.58 39.59 19.39Q38.82 20.14 37.86 20.68Q37.52 20.87 37.17 21.02ZM95.28 21.02Q93.53 21.81 91.43 21.81Q89.4 21.81 87.68 21.07Q87.28 20.89 86.9 20.68Q85.96 20.15 85.21 19.43Q84.35 18.6 83.73 17.51Q83.48 17.07 83.29 16.6Q82.58 14.92 82.58 12.95Q82.58 10.99 83.28 9.33Q83.48 8.85 83.73 8.41Q84.36 7.29 85.25 6.45Q85.98 5.75 86.9 5.23Q87.28 5.02 87.68 4.84Q89.4 4.1 91.43 4.1Q93.53 4.1 95.28 4.88Q95.63 5.04 95.97 5.23Q96.91 5.76 97.66 6.48Q98.52 7.31 99.14 8.41Q99.39 8.85 99.59 9.33Q100.29 10.99 100.29 12.95Q100.29 14.92 99.59 16.6Q99.39 17.07 99.14 17.51Q98.54 18.58 97.69 19.39Q96.93 20.14 95.97 20.68Q95.63 20.87 95.28 21.02Z" fill="#FFFFFF" fill-opacity="1.000000" fill-rule="evenodd"/>
</svg>
