<svg width="12.000977" height="15.000946" viewBox="0 0 12.001 15.0009" fill="none" xmlns="http://www.w3.org/2000/svg" xmlns:xlink="http://www.w3.org/1999/xlink">
	<desc>
			Created with Pixso.
	</desc>
	<defs/>
	<path id="path" d="M6 0C2.68 0 0 3 0 6.37C0 9.72 1.91 13.35 4.9 14.75C5.59 15.08 6.4 15.08 7.09 14.75C10.08 13.35 12 9.72 12 6.37C12 3 9.31 0 6 0ZM6 7.5C6.82 7.5 7.5 6.82 7.5 6C7.5 5.17 6.82 4.5 6 4.5C5.17 4.5 4.5 5.17 4.5 6C4.5 6.82 5.17 7.5 6 7.5Z" fill="#000000" fill-opacity="1.000000" fill-rule="evenodd"/>
	<path id="path" d="M0 6.37C0 9.72 1.91 13.35 4.9 14.75C5.59 15.08 6.4 15.08 7.09 14.75C10.08 13.35 12 9.72 12 6.37C12 3 9.31 0 6 0C2.68 0 0 3 0 6.37ZM7.5 6C7.5 5.17 6.82 4.5 6 4.5C5.17 4.5 4.5 5.17 4.5 6C4.5 6.82 5.17 7.5 6 7.5C6.82 7.5 7.5 6.82 7.5 6Z" stroke="#000000" stroke-opacity="1.000000" stroke-width="0.000950"/>
</svg>
