<svg width="18.000000" height="17.999969" viewBox="0 0 18 18" fill="none" xmlns="http://www.w3.org/2000/svg" xmlns:xlink="http://www.w3.org/1999/xlink">
	<desc>
			Created with Pixso.
	</desc>
	<defs/>
	<path id="path" d="M6.79 1.48L7.52 2.78C8.18 3.96 7.91 5.51 6.87 6.55C6.87 6.55 5.62 7.81 7.9 10.09C10.18 12.37 11.44 11.12 11.44 11.12C12.48 10.08 14.03 9.81 15.21 10.47L16.51 11.2C18.3 12.2 18.51 14.7 16.94 16.27C16 17.21 14.85 17.94 13.57 17.99C11.42 18.07 7.78 17.53 4.12 13.87C0.46 10.21 -0.08 6.57 0 4.42C0.05 3.14 0.78 1.99 1.72 1.05C3.29 -0.52 5.79 -0.31 6.79 1.48Z" fill="#FFFFFF" fill-opacity="1.000000" fill-rule="nonzero"/>
</svg>
