<svg width="21.000000" height="21.000000" viewBox="0 0 21 21" fill="none" xmlns="http://www.w3.org/2000/svg" xmlns:xlink="http://www.w3.org/1999/xlink">
	<desc>
			Created with Pixso.
	</desc>
	<defs/>
	<path id="path" d="M7.92 1.72L8.77 3.25C9.54 4.63 9.23 6.43 8.02 7.64C8.02 7.64 6.55 9.11 9.21 11.78C11.88 14.44 13.35 12.97 13.35 12.97C14.56 11.76 16.36 11.45 17.74 12.22L19.27 13.07C21.35 14.23 21.59 17.15 19.76 18.98C18.67 20.08 17.32 20.93 15.83 20.99C13.33 21.08 9.08 20.45 4.81 16.18C0.54 11.91 -0.09 7.66 0 5.16C0.06 3.67 0.91 2.32 2.01 1.22C3.84 -0.6 6.76 -0.36 7.92 1.72Z" fill="#2397FE" fill-opacity="1.000000" fill-rule="nonzero"/>
</svg>
