<svg width="26.000000" height="26.000000" viewBox="0 0 26 26" fill="none" xmlns="http://www.w3.org/2000/svg" xmlns:xlink="http://www.w3.org/1999/xlink">
	<desc>
			Created with Pixso.
	</desc>
	<defs>
		<clipPath id="clip381_19">
			<rect id="repair-wrench-svgrepo-com" width="26.000000" height="26.000000" fill="white" fill-opacity="0"/>
		</clipPath>
	</defs>
	<g clip-path="url(#clip381_19)">
		<path id="path" d="M25.4 3.82C25.29 3.58 25.07 3.41 24.8 3.36C24.76 3.35 24.71 3.35 24.66 3.35C24.44 3.35 24.24 3.44 24.08 3.59L21.87 5.8L20.31 5.68L20.19 4.12L22.4 1.91C22.59 1.72 22.67 1.45 22.63 1.19C22.58 0.92 22.41 0.7 22.16 0.59C21.31 0.2 20.36 0 19.42 0C17.67 0 16.03 0.68 14.79 1.91C12.99 3.71 12.4 6.29 13.22 8.68L0.72 21.19C-0.23 22.14 -0.24 23.68 0.7 24.62L1.37 25.3C1.82 25.75 2.42 26 3.07 26C3.72 26 4.34 25.74 4.8 25.28L17.31 12.77C17.99 13 18.71 13.12 19.44 13.12C21.19 13.12 22.84 12.44 24.08 11.2C26 9.27 26.54 6.31 25.4 3.82ZM19.44 11.49C18.75 11.49 18.07 11.35 17.44 11.07C17.33 11.02 17.22 11 17.11 11C16.89 11 16.69 11.08 16.53 11.24L9.52 18.25L3.64 24.12C3.49 24.28 3.28 24.36 3.06 24.36C2.86 24.36 2.67 24.29 2.52 24.14L1.85 23.47C1.54 23.17 1.55 22.66 1.87 22.35L7.74 16.47L14.75 9.46C14.99 9.22 15.06 8.86 14.92 8.55C14.09 6.67 14.49 4.52 15.94 3.06C16.87 2.13 18.11 1.62 19.43 1.62C19.72 1.62 20.02 1.65 20.31 1.7L18.78 3.23C18.61 3.4 18.52 3.63 18.54 3.87L18.74 6.5C18.77 6.9 19.09 7.22 19.49 7.25L22.12 7.45C22.14 7.45 22.16 7.46 22.18 7.46C22.4 7.46 22.61 7.37 22.76 7.22L24.29 5.69C24.57 7.27 24.07 8.91 22.93 10.05C22 10.98 20.76 11.49 19.44 11.49Z" fill="#FFFFFF" fill-opacity="1.000000" fill-rule="nonzero"/>
	</g>
</svg>
