<svg width="17.500000" height="14.583344" viewBox="0 0 17.5 14.5833" fill="none" xmlns="http://www.w3.org/2000/svg" xmlns:xlink="http://www.w3.org/1999/xlink">
	<desc>
			Created with Pixso.
	</desc>
	<defs/>
	<path id="path" d="M16 0.12C16 0.12 17.62 -0.51 17.49 1.03C17.44 1.66 17.04 3.87 16.72 6.26L15.64 13.34C15.64 13.34 15.55 14.37 14.74 14.55C13.93 14.73 12.72 13.92 12.5 13.74C12.32 13.61 9.12 11.58 8 10.58C7.68 10.31 7.32 9.77 8.04 9.14L12.77 4.63C13.3 4.09 13.84 2.83 11.6 4.36L5.3 8.65C5.3 8.65 4.58 9.1 3.23 8.69L0.31 7.79C0.31 7.79 -0.77 7.11 1.07 6.44C5.57 4.32 11.1 2.15 16 0.12Z" fill="#FFFFFF" fill-opacity="1.000000" fill-rule="nonzero"/>
</svg>
