<svg width="27.000000" height="27.000000" viewBox="0 0 27 27" fill="none" xmlns="http://www.w3.org/2000/svg" xmlns:xlink="http://www.w3.org/1999/xlink">
	<desc>
			Created with Pixso.
	</desc>
	<defs>
		<clipPath id="clip26_49">
			<rect id="telegram-svgrepo-com.svg" width="27.000000" height="27.000000" fill="white" fill-opacity="0"/>
		</clipPath>
	</defs>
	<g clip-path="url(#clip26_49)">
		<path id="path" d="M23.29 4.11C23.29 4.11 25.48 3.25 25.3 5.32C25.24 6.18 24.69 9.16 24.26 12.38L22.81 21.94C22.81 21.94 22.69 23.34 21.59 23.58C20.5 23.83 18.86 22.73 18.56 22.49C18.32 22.31 14.01 19.57 12.49 18.23C12.06 17.86 11.58 17.13 12.55 16.28L18.92 10.19C19.65 9.46 20.38 7.76 17.34 9.83L8.84 15.61C8.84 15.61 7.87 16.22 6.05 15.67L2.11 14.45C2.11 14.45 0.65 13.54 3.14 12.63C9.21 9.77 16.68 6.85 23.29 4.11Z" fill="#2397FE" fill-opacity="1.000000" fill-rule="nonzero"/>
	</g>
</svg>
