<svg width="19.996582" height="11.433990" viewBox="0 0 19.9966 11.434" fill="none" xmlns="http://www.w3.org/2000/svg" xmlns:xlink="http://www.w3.org/1999/xlink">
	<desc>
			Created with Pixso.
	</desc>
	<defs/>
	<path id="path" d="M17.8 8.01C17.8 8.01 19.41 9.61 19.81 10.35C19.98 10.62 20.04 10.87 19.96 11.03C19.82 11.29 19.36 11.42 19.21 11.43L16.35 11.43C16.15 11.43 15.74 11.38 15.23 11.03C14.85 10.76 14.47 10.32 14.09 9.88C13.54 9.24 13.06 8.68 12.58 8.68C12.51 8.68 12.45 8.69 12.4 8.71C12.03 8.83 11.56 9.35 11.56 10.75C11.56 11.18 11.22 11.43 10.98 11.43L9.67 11.43C9.22 11.43 6.9 11.27 4.84 9.1C2.32 6.44 0.05 1.11 0.03 1.07C-0.11 0.72 0.19 0.53 0.51 0.53L3.39 0.53C3.78 0.53 3.91 0.77 3.99 0.98C4.1 1.22 4.47 2.18 5.09 3.26C6.1 5.03 6.71 5.74 7.21 5.74C7.3 5.74 7.39 5.72 7.47 5.67C8.12 5.32 8 3.02 7.96 2.54C7.96 2.45 7.96 1.52 7.63 1.07C7.4 0.74 7 0.62 6.75 0.57C6.82 0.48 6.96 0.33 7.13 0.25C7.57 0.03 8.37 0 9.16 0L9.6 0C10.46 0.01 10.68 0.06 10.99 0.14C11.62 0.29 11.63 0.7 11.58 2.08C11.56 2.48 11.55 2.93 11.55 3.45C11.55 3.56 11.54 3.69 11.54 3.82C11.52 4.53 11.5 5.33 12 5.66C12.06 5.7 12.14 5.72 12.22 5.72C12.39 5.72 12.91 5.72 14.32 3.29C14.94 2.22 15.42 0.96 15.46 0.86C15.48 0.81 15.57 0.66 15.67 0.6C15.74 0.56 15.82 0.54 15.91 0.55L19.3 0.55C19.67 0.55 19.92 0.6 19.97 0.74C20.05 0.97 19.96 1.66 18.41 3.76C18.14 4.11 17.92 4.41 17.71 4.67C16.31 6.52 16.31 6.61 17.8 8.01Z" fill="#FFFFFF" fill-opacity="1.000000" fill-rule="nonzero"/>
</svg>
