<svg width="122.000000" height="224.000000" viewBox="0 0 122 224" fill="none" xmlns="http://www.w3.org/2000/svg" xmlns:xlink="http://www.w3.org/1999/xlink">
	<desc>
			Created with Pixso.
	</desc>
	<defs>
		<clipPath id="clip531_8">
			<rect id="Frame 47" width="122.000000" height="224.000000" fill="white" fill-opacity="0"/>
		</clipPath>
	</defs>
	<rect id="Frame 47" width="122.000000" height="224.000000" fill="#FFFFFF" fill-opacity="1.000000"/>
	<g clip-path="url(#clip531_8)">
		<rect id="Rectangle 13" x="3.000000" y="2.000000" rx="6.000000" width="116.000000" height="209.000000" fill="#28292B" fill-opacity="1.000000"/>
		<rect id="Rectangle 13" x="6.500000" y="5.500000" rx="6.000000" width="109.000000" height="202.000000" stroke="#28292B" stroke-opacity="1.000000" stroke-width="7.000000"/>
		<rect id="Rectangle 14" x="51.000000" y="112.000000" rx="6.000000" width="20.000000" height="20.000000" fill="#FFFFFF" fill-opacity="1.000000"/>
		<rect id="Rectangle 14" x="54.000000" y="115.000000" rx="3.000000" width="14.000000" height="14.000000" fill="#28292B" fill-opacity="1.000000"/>
		<rect id="Rectangle 14" x="13.000000" y="17.000000" rx="6.000000" width="96.000000" height="20.000000" fill="#FFFFFF" fill-opacity="1.000000"/>
		<rect id="Rectangle 14" x="13.000000" y="43.000000" rx="6.000000" width="96.000000" height="20.000000" fill="#FFFFFF" fill-opacity="1.000000"/>
		<path id="Rectangle 14" d="M13 211L28 211L28 213C28 216.31 25.31 219 22 219L19 219C15.68 219 13 216.31 13 213L13 211Z" fill="#28292B" fill-opacity="1.000000" fill-rule="evenodd"/>
		<path id="Rectangle 14" d="M94 211L109 211L109 213C109 216.31 106.31 219 103 219L100 219C96.68 219 94 216.31 94 213L94 211Z" fill="#28292B" fill-opacity="1.000000" fill-rule="evenodd"/>
	</g>
</svg>
