<svg width="122.000000" height="224.000000" viewBox="0 0 122 224" fill="none" xmlns="http://www.w3.org/2000/svg" xmlns:xlink="http://www.w3.org/1999/xlink">
	<desc>
			Created with Pixso.
	</desc>
	<defs>
		<clipPath id="clip529_14">
			<rect id="Frame 47" width="122.000000" height="224.000000" fill="white" fill-opacity="0"/>
		</clipPath>
	</defs>
	<rect id="Frame 47" width="122.000000" height="224.000000" fill="#FFFFFF" fill-opacity="1.000000"/>
	<g clip-path="url(#clip529_14)">
		<rect id="Rectangle 13" x="18.000000" y="60.000000" rx="22.000000" width="86.000000" height="102.000000" fill="#28292B" fill-opacity="1.000000"/>
		<rect id="Rectangle 13" x="21.500000" y="63.500000" rx="22.000000" width="79.000000" height="95.000000" stroke="#28292B" stroke-opacity="1.000000" stroke-width="7.000000"/>
		<rect id="Rectangle 15" x="25.000000" y="67.000000" rx="17.000000" width="72.000000" height="88.000000" fill="#28292B" fill-opacity="1.000000"/>
		<rect id="Rectangle 15" x="26.500000" y="68.500000" rx="17.000000" width="69.000000" height="85.000000" stroke="#FFFFFF" stroke-opacity="1.000000" stroke-width="3.000000"/>
		<rect id="Rectangle 16" x="59.000000" y="82.000000" rx="2.500000" width="5.000000" height="31.000000" fill="#FFFFFF" fill-opacity="1.000000"/>
		<rect id="Rectangle 16" x="58.000000" y="111.649048" rx="2.500000" width="5.000000" height="22.564621" transform="rotate(-46.87 58.000000 111.649048)" fill="#FFFFFF" fill-opacity="1.000000"/>
		<path id="Rectangle 17" d="M43 30L79 30C82.31 30 85 32.68 85 36L85 56L37 56L37 36C37 32.68 39.68 30 43 30Z" fill="#28292B" fill-opacity="1.000000" fill-rule="evenodd"/>
		<path id="Rectangle 17" d="M37 166L85 166L85 186C85 189.31 82.31 192 79 192L43 192C39.68 192 37 189.31 37 186L37 166Z" fill="#28292B" fill-opacity="1.000000" fill-rule="evenodd"/>
	</g>
</svg>
