<svg width="338.000000" height="224.000000" viewBox="0 0 338 224" fill="none" xmlns="http://www.w3.org/2000/svg" xmlns:xlink="http://www.w3.org/1999/xlink">
	<desc>
			Created with Pixso.
	</desc>
	<defs>
		<clipPath id="clip532_22">
			<rect id="Frame 47" width="338.000000" height="224.000000" fill="white" fill-opacity="0"/>
		</clipPath>
	</defs>
	<rect id="Frame 47" width="338.000000" height="224.000000" fill="#FFFFFF" fill-opacity="1.000000"/>
	<g clip-path="url(#clip532_22)">
		<rect id="Rectangle 19" x="25.000000" y="3.000000" rx="15.000000" width="288.000000" height="172.000000" fill="#28292B" fill-opacity="1.000000"/>
		<rect id="Rectangle 15" x="32.000000" y="10.000000" rx="10.000000" width="274.000000" height="158.000000" fill="#28292B" fill-opacity="1.000000"/>
		<rect id="Rectangle 15" x="33.500000" y="11.500000" rx="10.000000" width="271.000000" height="155.000000" stroke="#FFFFFF" stroke-opacity="1.000000" stroke-width="3.000000"/>
		<path id="17:00" d="M271.56 139.1C271.55 146.3 268.24 150.47 262.75 150.47C257.25 150.46 253.92 146.27 253.94 139.1C253.95 131.96 257.27 127.88 262.75 127.88C268.22 127.88 271.57 131.97 271.56 139.1ZM292.2 139.1C292.2 146.3 288.88 150.47 283.39 150.47C277.9 150.46 274.57 146.27 274.59 139.1C274.59 131.96 277.92 127.88 283.39 127.88C288.86 127.88 292.22 131.97 292.2 139.1ZM218.92 128.18L223.25 128.18L223.25 150L218.65 150L218.65 132.56L218.51 132.56L213.52 135.69L213.52 131.6L218.92 128.18ZM234.07 150L229.31 150L238.35 132.1L238.35 131.95L227.82 131.95L227.82 128.18L243.13 128.18L243.13 132L234.07 150ZM258.64 139.1C258.63 144.14 260.25 146.65 262.75 146.65C265.24 146.65 266.86 144.14 266.85 139.1C266.85 134.15 265.23 131.66 262.75 131.66C260.25 131.66 258.64 134.15 258.64 139.1ZM279.28 139.1C279.28 144.14 280.89 146.65 283.39 146.65C285.89 146.65 287.51 144.14 287.49 139.1C287.49 134.15 285.87 131.66 283.39 131.66C280.9 131.66 279.29 134.15 279.28 139.1ZM250.52 134.2C250.51 135.63 249.33 136.76 247.96 136.76C246.55 136.76 245.39 135.63 245.4 134.2C245.39 132.81 246.55 131.67 247.96 131.67C249.33 131.67 250.51 132.81 250.52 134.2ZM250.52 144.91C250.51 146.32 249.33 147.46 247.96 147.46C246.55 147.46 245.39 146.32 245.4 144.91C245.39 143.51 246.55 142.37 247.96 142.37C249.33 142.37 250.51 143.51 250.52 144.91Z" fill="#FFFFFF" fill-opacity="1.000000" fill-rule="evenodd"/>
		<rect id="Rectangle 21" x="159.000000" y="179.000000" width="20.000000" height="28.000000" fill="#28292B" fill-opacity="1.000000"/>
		<rect id="Rectangle 18" x="89.000000" y="211.000000" rx="5.000000" width="160.000000" height="10.000000" fill="#28292B" fill-opacity="1.000000"/>
	</g>
</svg>
