<svg width="122.000000" height="224.000000" viewBox="0 0 122 224" fill="none" xmlns="http://www.w3.org/2000/svg" xmlns:xlink="http://www.w3.org/1999/xlink">
	<desc>
			Created with Pixso.
	</desc>
	<defs>
		<clipPath id="clip529_8">
			<rect id="Frame 47" width="122.000000" height="224.000000" fill="white" fill-opacity="0"/>
		</clipPath>
	</defs>
	<rect id="Frame 47" width="122.000000" height="224.000000" fill="#FFFFFF" fill-opacity="1.000000"/>
	<g clip-path="url(#clip529_8)">
		<rect id="Rectangle 13" x="3.000000" y="3.000000" rx="21.000000" width="116.000000" height="218.000000" fill="#28292B" fill-opacity="1.000000"/>
		<rect id="Rectangle 13" x="6.500000" y="6.500000" rx="21.000000" width="109.000000" height="211.000000" stroke="#28292B" stroke-opacity="1.000000" stroke-width="7.000000"/>
		<rect id="Rectangle 15" x="10.000000" y="10.000000" rx="17.000000" width="102.000000" height="204.000000" fill="#28292B" fill-opacity="1.000000"/>
		<rect id="Rectangle 15" x="11.500000" y="11.500000" rx="17.000000" width="99.000000" height="201.000000" stroke="#FFFFFF" stroke-opacity="1.000000" stroke-width="3.000000"/>
		<rect id="Rectangle 14" x="41.000000" y="20.000000" rx="5.500000" width="40.000000" height="11.000000" fill="#FFFFFF" fill-opacity="1.000000"/>
		<path id="17:00" d="M78.56 66.1C78.55 73.3 75.24 77.47 69.74 77.47C64.25 77.46 60.92 73.27 60.94 66.1C60.95 58.96 64.27 54.88 69.74 54.88C75.22 54.88 78.57 58.97 78.56 66.1ZM99.2 66.1C99.19 73.3 95.88 77.47 90.39 77.47C84.9 77.46 81.57 73.27 81.59 66.1C81.59 58.96 84.92 54.88 90.39 54.88C95.86 54.88 99.22 58.97 99.2 66.1ZM25.92 55.18L30.25 55.18L30.25 77L25.65 77L25.65 59.56L25.51 59.56L20.52 62.69L20.52 58.6L25.92 55.18ZM41.07 77L36.3 77L45.35 59.09L45.35 58.95L34.82 58.95L34.82 55.18L50.13 55.18L50.13 59L41.07 77ZM65.64 66.1C65.63 71.14 67.25 73.65 69.74 73.65C72.24 73.65 73.86 71.14 73.85 66.1C73.85 61.15 72.23 58.66 69.74 58.66C67.25 58.66 65.64 61.15 65.64 66.1ZM86.28 66.1C86.27 71.14 87.89 73.65 90.39 73.65C92.89 73.65 94.51 71.14 94.49 66.1C94.49 61.15 92.87 58.66 90.39 58.66C87.9 58.66 86.29 61.15 86.28 66.1ZM57.52 61.2C57.51 62.62 56.33 63.76 54.96 63.76C53.55 63.76 52.39 62.62 52.4 61.2C52.39 59.81 53.55 58.67 54.96 58.67C56.33 58.67 57.51 59.81 57.52 61.2ZM57.52 71.9C57.51 73.32 56.33 74.46 54.96 74.46C53.55 74.46 52.39 73.32 52.4 71.9C52.39 70.51 53.55 69.37 54.96 69.37C56.33 69.37 57.51 70.51 57.52 71.9Z" fill="#FFFFFF" fill-opacity="1.000000" fill-rule="evenodd"/>
	</g>
</svg>
